STARTFONT 2.1
FONT -Adobe-Helvetica-Bold-R-Narrow--33-240-100-100-P-147-ISO8859-1
SIZE 24 100 100
FONTBOUNDINGBOX 31 34 -5 -6

STARTPROPERTIES 26
_DEC_DEVICE_FONTNAMES "PS=Helvetica-Narrow-Bold"
FONTNAME_REGISTRY ""
FAMILY_NAME "Helvetica"
FOUNDRY "Adobe"
WEIGHT_NAME "Bold"
SLANT "R"
SETWIDTH_NAME "Narrow"
ADD_STYLE_NAME ""
PIXEL_SIZE 33
POINT_SIZE 240
RESOLUTION_X 100
RESOLUTION_Y 100
SPACING "P"
AVERAGE_WIDTH 147
CHARSET_REGISTRY "ISO8859"
CHARSET_ENCODING "1"
CHARSET_COLLECTIONS "ASCII ISO8859-1 ADOBE-STANDARD"
FULL_NAME "Helvetica Narrow Bold"
COPYRIGHT "Copyright (c) 1991 Adobe Systems, Inc."
CAP_HEIGHT 24
X_HEIGHT 19
WEIGHT 10
QUAD_WIDTH 17
DEFAULT_CHAR 0
FONT_DESCENT 6
FONT_ASCENT 28
ENDPROPERTIES

CHARS 190

STARTCHAR space
ENCODING 32
SWIDTH 228 0
DWIDTH 7 0
BBX 1 1 0 0
BITMAP
00
ENDCHAR

STARTCHAR exclam
ENCODING 33
SWIDTH 273 0
DWIDTH 9 0
BBX 4 24 3 0
BITMAP
F0
F0
F0
F0
F0
F0
F0
F0
F0
F0
E0
60
60
60
60
60
60
00
00
F0
F0
F0
F0
F0
ENDCHAR

STARTCHAR quotedbl
ENCODING 34
SWIDTH 389 0
DWIDTH 12 0
BBX 10 8 1 16
BITMAP
F3C0
F3C0
F3C0
F3C0
F3C0
6180
6180
6180
ENDCHAR

STARTCHAR numbersign
ENCODING 35
SWIDTH 456 0
DWIDTH 14 0
BBX 14 23 0 -1
BITMAP
0738
0638
0E30
0E30
0E70
0E70
7FFC
7FFC
7FFC
7FFC
1C60
1CE0
18E0
18E0
FFF8
FFF8
FFF8
FFF8
39C0
31C0
31C0
7180
7380
ENDCHAR

STARTCHAR dollar
ENCODING 36
SWIDTH 456 0
DWIDTH 16 0
BBX 14 29 1 -4
BITMAP
0300
0300
0FC0
1FF0
3FF8
7B78
733C
733C
733C
7300
7B00
3F00
3FC0
1FF0
03F8
03FC
033C
033C
F33C
733C
733C
7B78
3FF8
3FF0
0FC0
0300
0300
0300
0300
ENDCHAR

STARTCHAR percent
ENCODING 37
SWIDTH 729 0
DWIDTH 25 0
BBX 23 23 1 0
BITMAP
000040
1E00C0
3F0180
7F8180
738300
E1C300
E1C600
E1C600
738C00
7F8C00
3F1800
1E1800
0030F0
0031F8
0063FC
00639C
00C70E
00C70E
01870E
01839C
0303FC
0301F8
0600F0
ENDCHAR

STARTCHAR ampersand
ENCODING 38
SWIDTH 592 0
DWIDTH 18 0
BBX 16 24 1 0
BITMAP
0700
0FC0
1FE0
3FE0
38E0
38E0
38E0
3CE0
1FC0
1FC0
1F80
1F8E
3F8E
7FCE
F1EC
E1FC
E0FC
E078
F078
F0FC
7FFE
7FFE
3FCF
0F00
ENDCHAR

STARTCHAR quoteright
ENCODING 39
SWIDTH 228 0
DWIDTH 8 0
BBX 4 8 2 16
BITMAP
F0
F0
F0
F0
30
20
60
C0
ENDCHAR

STARTCHAR parenleft
ENCODING 40
SWIDTH 273 0
DWIDTH 9 0
BBX 7 29 1 -6
BITMAP
0E
0C
1C
18
38
30
70
70
70
60
E0
E0
E0
E0
E0
E0
E0
E0
E0
F0
70
70
70
30
38
38
18
1C
0E
ENDCHAR

STARTCHAR parenright
ENCODING 41
SWIDTH 273 0
DWIDTH 9 0
BBX 7 29 1 -6
BITMAP
E0
60
70
30
38
18
1C
1C
1C
0C
0E
0E
0E
0E
0E
0E
0E
0E
0E
1E
1C
1C
1C
18
38
38
30
70
E0
ENDCHAR

STARTCHAR asterisk
ENCODING 42
SWIDTH 319 0
DWIDTH 10 0
BBX 8 12 1 12
BITMAP
18
18
18
99
FF
FF
3C
3C
3E
66
66
24
ENDCHAR

STARTCHAR plus
ENCODING 43
SWIDTH 479 0
DWIDTH 15 0
BBX 13 16 1 -1
BITMAP
0700
0700
0700
0700
0700
0700
FFF8
FFF8
FFF8
FFF8
0700
0700
0700
0700
0700
0700
ENDCHAR

STARTCHAR comma
ENCODING 44
SWIDTH 228 0
DWIDTH 8 0
BBX 4 10 2 -5
BITMAP
F0
F0
F0
F0
F0
30
30
30
60
C0
ENDCHAR

STARTCHAR minus
ENCODING 45
SWIDTH 479 0
DWIDTH 15 0
BBX 13 4 1 5
BITMAP
FFF8
FFF8
FFF8
FFF8
ENDCHAR

STARTCHAR period
ENCODING 46
SWIDTH 228 0
DWIDTH 7 0
BBX 4 5 2 0
BITMAP
F0
F0
F0
F0
F0
ENDCHAR

STARTCHAR slash
ENCODING 47
SWIDTH 228 0
DWIDTH 7 0
BBX 7 23 0 0
BITMAP
02
06
06
04
04
0C
0C
08
08
18
18
10
10
10
30
20
20
20
60
60
40
40
C0
ENDCHAR

STARTCHAR zero
ENCODING 48
SWIDTH 456 0
DWIDTH 15 0
BBX 13 23 1 0
BITMAP
0F80
1FC0
3FE0
7FF0
78F0
7070
7070
F078
F078
F078
F078
F078
F078
F078
F078
F078
7070
7070
78F0
7FF0
3FE0
1FC0
0F80
ENDCHAR

STARTCHAR one
ENCODING 49
SWIDTH 456 0
DWIDTH 15 0
BBX 8 23 2 0
BITMAP
07
07
0F
1F
FF
FF
FF
0F
0F
0F
0F
0F
0F
0F
0F
0F
0F
0F
0F
0F
0F
0F
0F
ENDCHAR

STARTCHAR two
ENCODING 50
SWIDTH 456 0
DWIDTH 15 0
BBX 13 23 1 0
BITMAP
0F80
1FC0
3FE0
7FF0
78F0
7078
F078
F078
0078
0070
00F0
01F0
03E0
07C0
0F80
1F00
3E00
7C00
7800
7FF8
FFF8
FFF8
FFF8
ENDCHAR

STARTCHAR three
ENCODING 51
SWIDTH 456 0
DWIDTH 15 0
BBX 13 23 1 0
BITMAP
0F80
1FC0
3FE0
7FF0
78F0
7070
7070
F070
00F0
00E0
07E0
07E0
07F0
00F0
0078
0078
F078
F078
70F0
7FF0
3FE0
1FC0
0F80
ENDCHAR

STARTCHAR four
ENCODING 52
SWIDTH 456 0
DWIDTH 15 0
BBX 13 23 1 0
BITMAP
03E0
03E0
03E0
07E0
07E0
0FE0
0DE0
1DE0
19E0
39E0
31E0
71E0
61E0
E1E0
FFF8
FFF8
FFF8
FFF8
01E0
01E0
01E0
01E0
01E0
ENDCHAR

STARTCHAR five
ENCODING 53
SWIDTH 456 0
DWIDTH 15 0
BBX 13 23 1 0
BITMAP
3FF0
3FF0
3FF0
3FF0
3000
3000
3000
7380
7FC0
7FE0
7FF0
78F0
4078
0078
0078
0078
F078
F070
70F0
7FF0
3FE0
1FC0
0F00
ENDCHAR

STARTCHAR six
ENCODING 54
SWIDTH 456 0
DWIDTH 14 0
BBX 12 23 1 0
BITMAP
0F80
1FC0
3FE0
38E0
70F0
7000
7000
F000
F780
FFC0
FFE0
F8F0
F0F0
F070
F070
F070
7070
70F0
78E0
3FE0
3FC0
1FC0
0F00
ENDCHAR

STARTCHAR seven
ENCODING 55
SWIDTH 456 0
DWIDTH 15 0
BBX 13 23 1 0
BITMAP
FFF8
FFF8
FFF8
FFF8
0070
00F0
00E0
01E0
01C0
03C0
0380
0780
0700
0700
0F00
0E00
0E00
0E00
1E00
1E00
1E00
1C00
1C00
ENDCHAR

STARTCHAR eight
ENCODING 56
SWIDTH 456 0
DWIDTH 16 0
BBX 14 23 1 0
BITMAP
0FC0
1FF0
3FF0
7878
7038
7038
7038
7038
3878
3FF0
1FE0
3FF8
7878
707C
F03C
F03C
F03C
F03C
7878
7FF8
3FF0
1FE0
0780
ENDCHAR

STARTCHAR nine
ENCODING 57
SWIDTH 456 0
DWIDTH 15 0
BBX 13 23 1 0
BITMAP
0F00
1FC0
3FE0
7FF0
70F0
F070
E070
E078
E078
E078
F078
F0F8
7FF8
7FF8
3FF8
0E78
0070
F070
F0F0
79E0
7FE0
3FC0
0F00
ENDCHAR

STARTCHAR colon
ENCODING 58
SWIDTH 273 0
DWIDTH 9 0
BBX 4 17 3 0
BITMAP
F0
F0
F0
F0
F0
00
00
00
00
00
00
00
F0
F0
F0
F0
F0
ENDCHAR

STARTCHAR semicolon
ENCODING 59
SWIDTH 273 0
DWIDTH 9 0
BBX 4 22 3 -5
BITMAP
F0
F0
F0
F0
F0
00
00
00
00
00
00
00
F0
F0
F0
F0
F0
30
30
30
60
C0
ENDCHAR

STARTCHAR less
ENCODING 60
SWIDTH 479 0
DWIDTH 15 0
BBX 13 16 1 -1
BITMAP
0008
0038
00F8
03F8
0FF0
3FC0
FF00
FC00
FC00
FF00
3FC0
0FF0
03F8
00F8
0038
0008
ENDCHAR

STARTCHAR equal
ENCODING 61
SWIDTH 479 0
DWIDTH 15 0
BBX 13 11 1 2
BITMAP
FFF8
FFF8
FFF8
FFF8
0000
0000
0000
FFF8
FFF8
FFF8
FFF8
ENDCHAR

STARTCHAR greater
ENCODING 62
SWIDTH 479 0
DWIDTH 15 0
BBX 13 16 1 -1
BITMAP
8000
C000
F800
FE00
FF80
1FE0
07F8
01F8
01F8
07F8
1FE0
FF80
FE00
F800
E000
8000
ENDCHAR

STARTCHAR question
ENCODING 63
SWIDTH 501 0
DWIDTH 17 0
BBX 14 24 2 0
BITMAP
0F80
3FE0
3FF0
7FF8
78F8
707C
F03C
F03C
003C
0078
00F8
01F8
01F0
03C0
0780
0780
0780
0000
0000
0780
0780
0780
0780
0780
ENDCHAR

STARTCHAR at
ENCODING 64
SWIDTH 800 0
DWIDTH 27 0
BBX 25 28 1 -4
BITMAP
001F0000
007FC000
01FFF000
03C0F800
07003C00
0E001E00
1E000E00
1C000700
381EE300
303FE380
7073C180
60E1C180
60C1C180
E1C1C180
E1818380
E1818380
E1818300
E1838700
61C78E00
70FFFC00
70FDF800
38306000
3C000000
1E000000
0F804000
07FFC000
01FFC000
007F0000
ENDCHAR

STARTCHAR A
ENCODING 65
SWIDTH 592 0
DWIDTH 19 0
BBX 18 24 1 0
BITMAP
01F000
01F000
01F000
03F800
03F800
03F800
03B800
07BC00
07BC00
071C00
0F1C00
0F1E00
0F1E00
0E0E00
1E0F00
1FFF00
1FFF00
1FFF00
3FFF80
3C0780
380780
7803C0
7803C0
F803C0
ENDCHAR

STARTCHAR B
ENCODING 66
SWIDTH 592 0
DWIDTH 19 0
BBX 16 24 2 0
BITMAP
FFE0
FFF8
FFFC
FFFE
F03E
F01E
F01E
F01E
F01E
F03E
FFFC
FFFC
FFFC
FFFE
F01E
F01F
F00F
F00F
F01F
F01E
FFFE
FFFC
FFF8
FFE0
ENDCHAR

STARTCHAR C
ENCODING 67
SWIDTH 592 0
DWIDTH 19 0
BBX 17 24 1 0
BITMAP
03F000
0FF800
1FFE00
3FFE00
3E1F00
7C0F00
780780
700780
F00000
F00000
F00000
F00000
F00000
F00000
F00000
F00780
700780
780700
7C0F00
3E1F00
3FFE00
1FFC00
0FF800
03E000
ENDCHAR

STARTCHAR D
ENCODING 68
SWIDTH 592 0
DWIDTH 19 0
BBX 16 24 2 0
BITMAP
FFE0
FFF0
FFF8
FFFC
F03E
F01E
F01E
F00F
F00F
F00F
F00F
F00F
F00F
F00F
F00F
F00E
F01E
F01E
F03E
F07C
FFFC
FFF8
FFF0
FFC0
ENDCHAR

STARTCHAR E
ENCODING 69
SWIDTH 547 0
DWIDTH 17 0
BBX 14 24 2 0
BITMAP
FFFC
FFFC
FFFC
FFFC
F000
F000
F000
F000
F000
F000
FFF8
FFF8
FFF8
FFF8
F000
F000
F000
F000
F000
F000
FFFC
FFFC
FFFC
FFFC
ENDCHAR

STARTCHAR F
ENCODING 70
SWIDTH 501 0
DWIDTH 17 0
BBX 14 24 2 0
BITMAP
FFFC
FFF8
FFF8
FFFC
F000
F000
F000
F000
F000
F000
FFF0
FFF0
FFF0
FFF0
F000
F000
F000
F000
F000
F000
F000
F000
F000
F000
ENDCHAR

STARTCHAR G
ENCODING 71
SWIDTH 638 0
DWIDTH 20 0
BBX 17 24 1 0
BITMAP
03F000
07FC00
1FFE00
1FFF00
3E1F00
7C0780
780780
700380
700000
F00000
F00000
F03F80
F03F80
F03F80
F03F80
700380
780380
780780
7C0780
3E1F80
1FFF80
1FFD80
0FF980
03E000
ENDCHAR

STARTCHAR H
ENCODING 72
SWIDTH 592 0
DWIDTH 20 0
BBX 16 24 2 0
BITMAP
F80F
700F
700F
700F
700F
700F
700F
700F
700F
7FFF
7FFF
7FFF
7FFF
700F
700F
700F
700F
700F
700F
700F
700F
700F
700F
F80F
ENDCHAR

STARTCHAR I
ENCODING 73
SWIDTH 228 0
DWIDTH 8 0
BBX 4 24 2 0
BITMAP
F0
F0
F0
F0
F0
F0
F0
F0
F0
F0
F0
F0
F0
F0
F0
F0
F0
F0
F0
F0
F0
F0
F0
F0
ENDCHAR

STARTCHAR J
ENCODING 74
SWIDTH 456 0
DWIDTH 15 0
BBX 12 24 1 0
BITMAP
00F0
00F0
00F0
00F0
00F0
00F0
00F0
00F0
00F0
00F0
00F0
00F0
00F0
00F0
00F0
F0F0
F0F0
F0F0
F0F0
F1F0
7FE0
7FE0
3FC0
1F00
ENDCHAR

STARTCHAR K
ENCODING 75
SWIDTH 592 0
DWIDTH 19 0
BBX 17 24 2 0
BITMAP
F01F00
F03E00
F03C00
F07800
F0F800
F0F000
F1E000
F3E000
F7C000
F78000
FF8000
FF8000
FFC000
FFC000
F9E000
F9F000
F0F000
F0F800
F07800
F03C00
F03E00
F01E00
F01F00
F00F80
ENDCHAR

STARTCHAR L
ENCODING 76
SWIDTH 501 0
DWIDTH 16 0
BBX 13 24 2 0
BITMAP
F000
F000
F000
F000
F000
F000
F000
F000
F000
F000
F000
F000
F000
F000
F000
F000
F000
F000
F000
F000
FFF8
FFF8
FFF8
FFF8
ENDCHAR

STARTCHAR M
ENCODING 77
SWIDTH 683 0
DWIDTH 22 0
BBX 18 24 2 0
BITMAP
FC0FC0
FC0FC0
FC0FC0
FC0FC0
FC0FC0
FE1FC0
FE1FC0
FE1FC0
F61BC0
F61BC0
F61BC0
F73BC0
F73BC0
F73BC0
F333C0
F333C0
F3F3C0
F3F3C0
F3F3C0
F3F3C0
F1E3C0
F1E3C0
F1E3C0
F1E3C0
ENDCHAR

STARTCHAR N
ENCODING 78
SWIDTH 592 0
DWIDTH 18 0
BBX 15 24 2 0
BITMAP
F01E
F01E
F81E
F81E
FC1E
FC1E
FE1E
FE1E
F71E
F71E
F71E
F39E
F39E
F1DE
F1DE
F0FE
F0FE
F0FE
F07E
F07E
F03E
F03E
F01E
F01E
ENDCHAR

STARTCHAR O
ENCODING 79
SWIDTH 638 0
DWIDTH 20 0
BBX 19 24 1 0
BITMAP
03F000
0FFC00
1FFF00
1FFF00
3E0F80
7C0780
7803C0
7803C0
7001C0
F001E0
F001E0
F001E0
F001E0
F001E0
F001E0
7001C0
7803C0
7803C0
7C0780
3E0F80
1FFF00
1FFF00
0FFE00
03F800
ENDCHAR

STARTCHAR P
ENCODING 80
SWIDTH 547 0
DWIDTH 18 0
BBX 15 24 2 0
BITMAP
FFE0
FFF8
FFFC
FFFC
F03C
F01E
F01E
F01E
F01E
F01E
F03E
F03C
FFFC
FFF8
FFF8
FFE0
F000
F000
F000
F000
F000
F000
F000
F000
ENDCHAR

STARTCHAR Q
ENCODING 81
SWIDTH 638 0
DWIDTH 21 0
BBX 19 25 1 -1
BITMAP
03F000
0FFC00
1FFF00
1FFF00
3E0F80
7C0780
7803C0
7803C0
7001C0
F001E0
F001E0
F001E0
F001E0
F001E0
F011E0
7019C0
783BC0
783FC0
7C1FC0
3E1F80
1FFF80
1FFFC0
0FFFE0
03F0C0
000080
ENDCHAR

STARTCHAR R
ENCODING 82
SWIDTH 592 0
DWIDTH 19 0
BBX 16 24 2 0
BITMAP
FFF8
FFFC
FFFE
FFFE
F01F
F00F
F00F
F00F
F00F
F00E
F01E
FFFE
FFFC
FFFC
FFFE
F01E
F01E
F01E
F01E
F01E
F01E
F01E
F01E
F00F
ENDCHAR

STARTCHAR S
ENCODING 83
SWIDTH 547 0
DWIDTH 18 0
BBX 16 24 1 0
BITMAP
07E0
1FF0
3FFC
7FFC
783E
F01E
F01E
F002
F800
7E00
7FE0
3FFC
1FFE
01FE
001F
000F
F00F
F00F
F00F
781E
7FFE
3FFC
1FF8
07E0
ENDCHAR

STARTCHAR T
ENCODING 84
SWIDTH 501 0
DWIDTH 17 0
BBX 16 24 0 0
BITMAP
FFFF
FFFF
FFFF
FFFF
03C0
03C0
03C0
03C0
03C0
03C0
03C0
03C0
03C0
03C0
03C0
03C0
03C0
03C0
03C0
03C0
03C0
03C0
03C0
03C0
ENDCHAR

STARTCHAR U
ENCODING 85
SWIDTH 592 0
DWIDTH 19 0
BBX 15 24 2 0
BITMAP
F01E
F01E
F01E
F01E
F01E
F01E
F01E
F01E
F01E
F01E
F01E
F01E
F01E
F01E
F01E
F01E
F01E
F01E
F01E
787C
7FFC
3FF8
1FF0
07C0
ENDCHAR

STARTCHAR V
ENCODING 86
SWIDTH 547 0
DWIDTH 19 0
BBX 17 24 1 0
BITMAP
F00780
780F00
780F00
780F00
380E00
380E00
3C1E00
3C1E00
1C1C00
1C1C00
1E3C00
0E3800
0E3800
0E3800
0F7800
077000
077000
077000
07F000
03E000
03E000
03E000
03E000
01C000
ENDCHAR

STARTCHAR W
ENCODING 87
SWIDTH 774 0
DWIDTH 25 0
BBX 25 24 0 0
BITMAP
F83E0F80
783E0F00
783E0F00
783E0F00
783E0E00
383E1E00
3C761E00
3C771E00
3C771C00
1C771C00
1C671C00
1C671C00
1CE33C00
1EE3B800
0EE3B800
0EE3B800
0EC3B800
0EC3B000
07C1F000
07C1F000
07C1F000
07C1F000
0781E000
0380E000
ENDCHAR

STARTCHAR X
ENCODING 88
SWIDTH 547 0
DWIDTH 17 0
BBX 16 24 1 0
BITMAP
F81F
781E
7C3E
3C3C
3C7C
1E78
1EF8
0FF0
0FF0
07E0
07E0
03C0
07C0
07E0
0FE0
0FF0
1EF0
1E78
3E78
3C3C
7C3C
783E
F81E
F01F
ENDCHAR

STARTCHAR Y
ENCODING 89
SWIDTH 547 0
DWIDTH 17 0
BBX 16 25 1 0
BITMAP
0001
F00F
F81E
781E
783C
3C3C
3C3C
1C78
1E78
1E70
0FF0
0FF0
07E0
07E0
07E0
03C0
03C0
03C0
03C0
03C0
03C0
03C0
03C0
03C0
03C0
ENDCHAR

STARTCHAR Z
ENCODING 90
SWIDTH 501 0
DWIDTH 16 0
BBX 14 24 1 0
BITMAP
FFFC
FFFC
FFFC
FFFC
007C
0078
00F8
00F0
01E0
03E0
03C0
0780
0F80
0F00
1F00
1E00
3C00
7C00
7800
F800
FFFC
FFFC
FFFC
FFFC
ENDCHAR

STARTCHAR bracketleft
ENCODING 91
SWIDTH 273 0
DWIDTH 9 0
BBX 6 30 2 -6
BITMAP
FC
FC
FC
E0
E0
E0
E0
E0
E0
E0
E0
E0
E0
E0
E0
E0
E0
E0
E0
E0
E0
E0
E0
E0
E0
E0
E0
FC
FC
FC
ENDCHAR

STARTCHAR backslash
ENCODING 92
SWIDTH 228 0
DWIDTH 8 0
BBX 8 23 0 0
BITMAP
C0
40
60
60
60
20
30
30
30
10
18
18
18
08
0C
0C
0C
04
06
06
06
03
03
ENDCHAR

STARTCHAR bracketright
ENCODING 93
SWIDTH 273 0
DWIDTH 8 0
BBX 6 30 0 -6
BITMAP
FC
FC
FC
1C
1C
1C
1C
1C
1C
1C
1C
1C
1C
1C
1C
1C
1C
1C
1C
1C
1C
1C
1C
1C
1C
1C
1C
FC
FC
FC
ENDCHAR

STARTCHAR asciicircum
ENCODING 94
SWIDTH 479 0
DWIDTH 17 0
BBX 13 14 2 8
BITMAP
0700
0F80
0F80
0F80
1DC0
1DC0
1DC0
18E0
38E0
38E0
3060
7070
7070
E038
ENDCHAR

STARTCHAR underscore
ENCODING 95
SWIDTH 456 0
DWIDTH 14 0
BBX 14 2 0 -6
BITMAP
FFFC
FFFC
ENDCHAR

STARTCHAR quoteleft
ENCODING 96
SWIDTH 228 0
DWIDTH 8 0
BBX 4 8 2 15
BITMAP
30
60
40
C0
F0
F0
F0
F0
ENDCHAR

STARTCHAR a
ENCODING 97
SWIDTH 456 0
DWIDTH 14 0
BBX 13 18 1 0
BITMAP
0F80
3FE0
7FF0
78F0
7070
7070
00F0
0FF0
3FF0
7F70
7070
F070
F0F0
F0F0
FFF0
7FF0
7F78
1C00
ENDCHAR

STARTCHAR b
ENCODING 98
SWIDTH 501 0
DWIDTH 17 0
BBX 14 24 2 0
BITMAP
F000
F000
F000
F000
F000
F000
F3C0
F7E0
FFF0
FFF8
F878
F878
F03C
F03C
F03C
F03C
F03C
F038
F878
F878
FFF0
FFF0
F7E0
03C0
ENDCHAR

STARTCHAR c
ENCODING 99
SWIDTH 456 0
DWIDTH 15 0
BBX 13 18 1 0
BITMAP
0F80
1FE0
3FE0
7FF0
78F0
7078
F078
F000
F000
F000
F000
F078
7078
78F0
7FF0
3FE0
1FC0
0F80
ENDCHAR

STARTCHAR d
ENCODING 100
SWIDTH 501 0
DWIDTH 16 0
BBX 13 24 1 0
BITMAP
0078
0078
0078
0078
0078
0078
0F78
1FF8
3FF8
7FF8
78F8
7078
F078
F078
F078
F078
F078
7078
7078
78F8
3FF8
3FF8
1F78
0E00
ENDCHAR

STARTCHAR e
ENCODING 101
SWIDTH 456 0
DWIDTH 15 0
BBX 14 18 1 0
BITMAP
0780
1FE0
3FF0
3FF8
7878
7038
703C
F03C
FFFC
FFFC
FFFC
F000
F000
783C
7FF8
3FF0
1FE0
0780
ENDCHAR

STARTCHAR f
ENCODING 102
SWIDTH 273 0
DWIDTH 9 0
BBX 8 24 0 0
BITMAP
0F
1F
3F
3C
3C
3C
3C
FF
FF
FF
3C
3C
3C
3C
3C
3C
3C
3C
3C
3C
3C
3C
3C
3C
ENDCHAR

STARTCHAR g
ENCODING 103
SWIDTH 501 0
DWIDTH 16 0
BBX 13 22 1 -6
BITMAP
0E38
1FB8
3FF8
7FF8
70F8
F078
E038
E038
E038
E038
E038
F078
78F8
7FF8
3FB8
1F38
0038
F078
F878
7FF0
3FE0
1F80
ENDCHAR

STARTCHAR h
ENCODING 104
SWIDTH 501 0
DWIDTH 16 0
BBX 12 24 2 0
BITMAP
E000
E000
E000
E000
E000
E000
E780
EFE0
FFE0
FFF0
F8F0
F0F0
F0F0
F0F0
F0F0
F0F0
F0F0
F0F0
F0F0
F0F0
F0F0
F0F0
F0F0
F0F0
ENDCHAR

STARTCHAR i
ENCODING 105
SWIDTH 228 0
DWIDTH 7 0
BBX 4 24 2 0
BITMAP
F0
F0
F0
F0
00
00
F0
F0
F0
F0
F0
F0
F0
F0
F0
F0
F0
F0
F0
F0
F0
F0
F0
F0
ENDCHAR

STARTCHAR j
ENCODING 106
SWIDTH 228 0
DWIDTH 8 0
BBX 6 30 0 -6
BITMAP
3C
3C
3C
3C
00
00
3C
3C
3C
3C
3C
3C
3C
3C
3C
3C
3C
3C
3C
3C
3C
3C
3C
3C
3C
3C
FC
FC
F8
F0
ENDCHAR

STARTCHAR k
ENCODING 107
SWIDTH 456 0
DWIDTH 15 0
BBX 13 24 2 0
BITMAP
F000
F000
F000
F000
F000
F000
F0F8
F0F0
F1E0
F3C0
F3C0
F780
FF00
FF00
FF00
FF80
FF80
F3C0
F3C0
F1E0
F1E0
F0F0
F0F0
F078
ENDCHAR

STARTCHAR l
ENCODING 108
SWIDTH 228 0
DWIDTH 8 0
BBX 4 23 2 0
BITMAP
F0
F0
F0
F0
F0
F0
F0
F0
F0
F0
F0
F0
F0
F0
F0
F0
F0
F0
F0
F0
F0
F0
F0
ENDCHAR

STARTCHAR m
ENCODING 109
SWIDTH 729 0
DWIDTH 24 0
BBX 20 18 2 0
BITMAP
F38780
F7CFE0
FFFFE0
FFFFE0
F8F8F0
F0F0F0
F0F0F0
F0F0F0
F0F0F0
F0F0F0
F0F0F0
F0F0F0
F0F0F0
F0F0F0
F0F0F0
F0F0F0
F0F0F0
F0F0F0
ENDCHAR

STARTCHAR n
ENCODING 110
SWIDTH 501 0
DWIDTH 15 0
BBX 13 18 2 0
BITMAP
F3C0
F7E0
FFF0
FFF0
F878
F078
F078
F078
F078
F078
F078
F078
F078
F078
F078
F078
F078
F078
ENDCHAR

STARTCHAR o
ENCODING 111
SWIDTH 501 0
DWIDTH 15 0
BBX 14 18 1 0
BITMAP
0780
1FE0
3FF0
7FF8
7878
7078
F03C
F03C
F03C
F03C
F03C
F03C
7078
7878
7FF8
3FF0
1FE0
0780
ENDCHAR

STARTCHAR p
ENCODING 112
SWIDTH 501 0
DWIDTH 17 0
BBX 14 23 2 -6
BITMAP
F3C0
F7E0
FFF0
FFF8
F878
F878
F038
F03C
F03C
F03C
F03C
F03C
F878
FCF8
FFF0
FFF0
F3E0
F000
F000
F000
F000
F000
F000
ENDCHAR

STARTCHAR q
ENCODING 113
SWIDTH 501 0
DWIDTH 16 0
BBX 13 23 1 -6
BITMAP
0E78
1F78
3FF8
7FF8
78F8
7078
F078
F078
F078
F078
F078
F078
7078
78F8
3FF8
3FF8
1F78
0078
0078
0078
0078
0078
0078
ENDCHAR

STARTCHAR r
ENCODING 114
SWIDTH 319 0
DWIDTH 11 0
BBX 8 18 2 0
BITMAP
F1
F7
FF
FF
FF
F8
F0
F0
F0
F0
F0
F0
F0
F0
F0
F0
F0
F0
ENDCHAR

STARTCHAR s
ENCODING 115
SWIDTH 456 0
DWIDTH 15 0
BBX 13 18 1 0
BITMAP
1F80
3FE0
7FF0
78F0
F070
F078
FC00
7F80
7FE0
1FF0
07F8
00F8
E078
F078
F8F0
7FF0
3FE0
1FC0
ENDCHAR

STARTCHAR t
ENCODING 116
SWIDTH 273 0
DWIDTH 9 0
BBX 8 22 0 0
BITMAP
3C
3C
3C
3C
3C
FF
FF
FF
3C
3C
3C
3C
3C
3C
3C
3C
3C
3C
3C
3F
1F
0F
ENDCHAR

STARTCHAR u
ENCODING 117
SWIDTH 501 0
DWIDTH 17 0
BBX 13 18 2 0
BITMAP
F078
F078
F078
F078
F078
F078
F078
F078
F078
F078
F078
F078
F078
F0F8
7FF8
7FF8
3F78
1E00
ENDCHAR

STARTCHAR v
ENCODING 118
SWIDTH 456 0
DWIDTH 15 0
BBX 14 18 0 0
BITMAP
F03C
7038
7878
7878
3870
3870
3870
3CF0
1CE0
1CE0
1CE0
1FE0
0FC0
0FC0
0FC0
0780
0780
0780
ENDCHAR

STARTCHAR w
ENCODING 119
SWIDTH 638 0
DWIDTH 20 0
BBX 20 18 0 0
BITMAP
F0F0F0
70F0F0
70F0E0
70F8E0
78F8E0
79F9E0
39F9E0
39D9C0
3999C0
3D9DC0
1D9DC0
1F9F80
1F9F80
1F8F80
1F0F80
0F0F80
0F0F00
0F0F00
ENDCHAR

STARTCHAR x
ENCODING 120
SWIDTH 456 0
DWIDTH 15 0
BBX 14 19 0 -1
BITMAP
F87C
7C78
3C78
3CF0
1EF0
1FE0
0FE0
0FC0
07C0
0780
0FC0
0FE0
1FE0
1EF0
3CF0
3C78
7878
F87C
0004
ENDCHAR

STARTCHAR y
ENCODING 121
SWIDTH 456 0
DWIDTH 15 0
BBX 14 23 0 -6
BITMAP
F03C
783C
7838
7838
3878
3C70
3C70
1C70
1CE0
1EE0
0EE0
0FE0
0FC0
0FC0
07C0
0780
0780
0780
0700
0F00
3F00
3E00
3C00
ENDCHAR

STARTCHAR z
ENCODING 122
SWIDTH 410 0
DWIDTH 14 0
BBX 12 18 1 0
BITMAP
7FF0
7FF0
7FF0
7FF0
01F0
01E0
03C0
07C0
0780
0F00
1E00
3E00
3C00
7800
7FF0
7FF0
7FF0
FFF0
ENDCHAR

STARTCHAR braceleft
ENCODING 123
SWIDTH 319 0
DWIDTH 10 0
BBX 7 30 1 -6
BITMAP
0E
1E
3E
38
38
38
38
38
38
38
38
38
38
38
F0
E0
F0
38
38
38
38
38
38
38
38
38
38
3E
1E
0E
ENDCHAR

STARTCHAR bar
ENCODING 124
SWIDTH 230 0
DWIDTH 8 0
BBX 2 29 3 -6
BITMAP
C0
C0
C0
C0
C0
C0
C0
C0
C0
C0
C0
C0
C0
C0
C0
C0
C0
C0
C0
C0
C0
C0
C0
C0
C0
C0
C0
C0
C0
ENDCHAR

STARTCHAR braceright
ENCODING 125
SWIDTH 319 0
DWIDTH 10 0
BBX 7 30 2 -6
BITMAP
E0
F0
F8
38
38
38
38
38
38
38
38
38
38
38
1E
0E
1E
38
38
38
38
38
38
38
38
38
38
F8
F0
E0
ENDCHAR

STARTCHAR asciitilde
ENCODING 126
SWIDTH 479 0
DWIDTH 16 0
BBX 12 6 2 4
BITMAP
3000
7C30
7E30
C7E0
C3E0
00C0
ENDCHAR

STARTCHAR exclamdown
ENCODING 161
SWIDTH 273 0
DWIDTH 9 0
BBX 4 24 2 -6
BITMAP
F0
F0
F0
F0
F0
00
00
60
60
60
60
60
60
F0
F0
F0
F0
F0
F0
F0
F0
F0
F0
F0
ENDCHAR

STARTCHAR cent
ENCODING 162
SWIDTH 456 0
DWIDTH 14 0
BBX 12 24 1 -3
BITMAP
0080
0080
0080
0F80
1FC0
3FE0
79F0
71F0
7270
F200
F200
F200
F200
F400
F470
7470
7CF0
7FE0
3FE0
1FC0
0F00
0800
1000
1000
ENDCHAR

STARTCHAR sterling
ENCODING 163
SWIDTH 456 0
DWIDTH 13 0
BBX 12 23 1 0
BITMAP
0F00
1FC0
3FE0
7FE0
70F0
F070
F070
F070
7000
7000
7800
FF80
FF80
1C00
1C00
1C00
1800
3800
3010
FFF0
FFF0
7FF0
41E0
ENDCHAR

STARTCHAR currency
ENCODING 164
SWIDTH 456 0
DWIDTH 15 0
BBX 13 17 1 3
BITMAP
4010
6030
E738
7FF0
3FE0
38E0
3060
7070
7070
7070
3060
38E0
3FE0
7FF0
E738
6030
4010
ENDCHAR

STARTCHAR yen
ENCODING 165
SWIDTH 456 0
DWIDTH 15 0
BBX 15 22 0 0
BITMAP
F01E
701C
3838
3838
1C70
1C70
0EE0
0FE0
07C0
07C0
0380
3FF8
3FF8
0380
3FF8
3FF8
0380
0380
0380
0380
0380
0380
ENDCHAR

STARTCHAR brokenbar
ENCODING 166
SWIDTH 230 0
DWIDTH 8 0
BBX 2 30 3 -6
BITMAP
C0
C0
C0
C0
C0
C0
C0
C0
C0
C0
C0
C0
00
00
00
00
00
00
C0
C0
C0
C0
C0
C0
C0
C0
C0
C0
C0
C0
ENDCHAR

STARTCHAR section
ENCODING 167
SWIDTH 456 0
DWIDTH 15 0
BBX 13 29 1 -6
BITMAP
0F80
3FE0
3FE0
78F0
78F0
78F0
7C00
7E00
3F80
3FC0
7FF0
E3F0
E0F8
E078
F038
F838
7E78
7FF0
1FE0
0FE0
03F0
00F0
7070
7070
78F0
7FF0
3FE0
1FC0
0F00
ENDCHAR

STARTCHAR dieresis
ENCODING 168
SWIDTH 273 0
DWIDTH 9 0
BBX 8 4 0 20
BITMAP
E7
E7
E7
E7
ENDCHAR

STARTCHAR copyright
ENCODING 169
SWIDTH 604 0
DWIDTH 20 0
BBX 20 24 0 0
BITMAP
01F800
07FE00
0F0F00
1C0380
3801C0
30F0C0
61FC60
638C60
430620
C60630
C60030
C60030
C60030
C60030
C60630
430620
638C60
61FC60
30F0C0
3801C0
1C0380
0E0700
07FE00
01F800
ENDCHAR

STARTCHAR ordfeminine
ENCODING 170
SWIDTH 303 0
DWIDTH 10 0
BBX 8 15 1 9
BITMAP
3C
7E
C6
C6
1E
7E
E6
C6
CE
FE
77
00
FE
FE
FE
ENDCHAR

STARTCHAR guillemotleft
ENCODING 171
SWIDTH 456 0
DWIDTH 15 0
BBX 11 14 2 2
BITMAP
0820
0840
1040
30C0
71C0
E380
C300
C300
E380
71C0
30C0
1040
1040
0820
ENDCHAR

STARTCHAR logicalnot
ENCODING 172
SWIDTH 479 0
DWIDTH 15 0
BBX 13 10 1 3
BITMAP
FFF8
FFF8
FFF8
FFF8
0038
0038
0038
0038
0038
0038
ENDCHAR

STARTCHAR hyphen
ENCODING 173
SWIDTH 273 0
DWIDTH 8 0
BBX 7 4 0 7
BITMAP
FE
FE
FE
FE
ENDCHAR

STARTCHAR registered
ENCODING 174
SWIDTH 604 0
DWIDTH 20 0
BBX 20 24 0 0
BITMAP
01F800
07FE00
0F0F00
1C0380
3801C0
3000C0
63F860
63FC60
430660
C30630
C30630
C3FE30
C3FC30
C33030
C31830
431820
630C60
630C60
330EC0
3801C0
1C0380
0F0F00
07FE00
01F800
ENDCHAR

STARTCHAR macron
ENCODING 175
SWIDTH 273 0
DWIDTH 8 0
BBX 8 3 0 20
BITMAP
FF
FF
FF
ENDCHAR

STARTCHAR degree
ENCODING 176
SWIDTH 328 0
DWIDTH 10 0
BBX 8 9 1 14
BITMAP
3C
7E
46
C3
C3
C3
42
7E
3C
ENDCHAR

STARTCHAR plusminus
ENCODING 177
SWIDTH 479 0
DWIDTH 15 0
BBX 13 22 1 0
BITMAP
0700
0700
0700
0700
0700
0700
FFF8
FFF8
FFF8
FFF8
0700
0700
0700
0700
0700
0700
0000
0000
FFF8
FFF8
FFF8
FFF8
ENDCHAR

STARTCHAR twosuperior
ENCODING 178
SWIDTH 273 0
DWIDTH 7 0
BBX 7 14 0 9
BITMAP
38
7C
EE
C6
C6
06
0E
0C
18
30
60
E0
FE
FE
ENDCHAR

STARTCHAR threesuperior
ENCODING 179
SWIDTH 273 0
DWIDTH 8 0
BBX 8 14 0 9
BITMAP
3C
7E
E7
C3
C3
07
1E
1E
07
03
C3
E7
7E
3C
ENDCHAR

STARTCHAR acute
ENCODING 180
SWIDTH 273 0
DWIDTH 8 0
BBX 6 5 3 19
BITMAP
3C
38
70
60
C0
ENDCHAR

STARTCHAR mu
ENCODING 181
SWIDTH 501 0
DWIDTH 17 0
BBX 13 24 2 -6
BITMAP
F078
F078
F078
F078
F078
F078
F078
F078
F078
F078
F078
F078
F078
F0F8
FFF8
FFF8
FF78
FE78
F000
F000
F000
F000
F000
F000
ENDCHAR

STARTCHAR paragraph
ENCODING 182
SWIDTH 456 0
DWIDTH 15 0
BBX 13 29 1 -5
BITMAP
1FF8
3FF8
7E60
7E60
FE60
FE60
FE60
FE60
FE60
FE60
FE60
7E60
7E60
3E60
0660
0660
0660
0660
0660
0660
0660
0660
0660
0660
0660
0660
0660
0660
0660
ENDCHAR

STARTCHAR periodcentered
ENCODING 183
SWIDTH 228 0
DWIDTH 7 0
BBX 3 4 2 10
BITMAP
E0
E0
E0
E0
ENDCHAR

STARTCHAR cedilla
ENCODING 184
SWIDTH 273 0
DWIDTH 9 0
BBX 6 6 2 -6
BITMAP
10
38
0C
8C
FC
78
ENDCHAR

STARTCHAR onesuperior
ENCODING 185
SWIDTH 273 0
DWIDTH 8 0
BBX 5 13 1 9
BITMAP
08
18
F8
F8
18
18
18
18
18
18
18
18
18
ENDCHAR

STARTCHAR ordmasculine
ENCODING 186
SWIDTH 299 0
DWIDTH 10 0
BBX 8 15 1 9
BITMAP
3C
7E
E7
C3
C3
C3
C3
C3
E7
7E
3C
00
FF
FF
FF
ENDCHAR

STARTCHAR guillemotright
ENCODING 187
SWIDTH 456 0
DWIDTH 14 0
BBX 10 14 2 2
BITMAP
8400
4200
4300
6380
7380
39C0
18C0
18C0
39C0
7380
6380
4300
4200
8400
ENDCHAR

STARTCHAR onequarter
ENCODING 188
SWIDTH 684 0
DWIDTH 24 0
BBX 22 23 1 0
BITMAP
000040
0C0180
1C0300
FC0300
FC0600
0C0600
0C0C00
0C0C00
0C1800
0C1810
0C3070
0C30F0
0C60F0
0C61B0
00C130
00C330
018230
018630
0307FC
0307FC
060030
060030
0E0030
ENDCHAR

STARTCHAR onehalf
ENCODING 189
SWIDTH 684 0
DWIDTH 23 0
BBX 21 23 1 0
BITMAP
000080
0C0300
1C0300
FC0600
FC0600
0C0C00
0C0C00
0C1800
0C1800
0C31E0
0C33F0
0C6738
0C6618
0CC618
00C018
018038
018070
0300E0
0301C0
060380
060700
0C07F8
1C07F8
ENDCHAR

STARTCHAR threequarters
ENCODING 190
SWIDTH 684 0
DWIDTH 23 0
BBX 21 23 1 0
BITMAP
3C01C0
7E0180
E70300
C30300
C30600
070600
1E0C00
1F0C00
071C00
8318E0
C338E0
E731E0
7E31E0
3C6360
006260
00C660
00C460
018C60
018FF8
030FF8
030060
060060
0E0060
ENDCHAR

STARTCHAR questiondown
ENCODING 191
SWIDTH 501 0
DWIDTH 16 0
BBX 13 24 1 -6
BITMAP
0780
0780
0780
0780
0000
0000
0700
0700
0700
0F00
1F00
3E00
7C00
7800
F000
F078
F078
F078
F078
78F0
7FF0
7FE0
3FE0
0F80
ENDCHAR

STARTCHAR Agrave
ENCODING 192
SWIDTH 592 0
DWIDTH 19 0
BBX 19 28 1 0
BITMAP
078000
038000
01C000
00C000
006000
000000
01F000
01F000
01F000
03F800
03F800
03B800
07BC00
07BC00
071C00
0F1E00
0F1E00
0E0E00
1E0F00
1FFF00
1FFF00
1FFF00
3FFF80
3C0780
3C0780
7803C0
7803C0
F803E0
ENDCHAR

STARTCHAR Aacute
ENCODING 193
SWIDTH 592 0
DWIDTH 19 0
BBX 19 28 1 0
BITMAP
003C00
003800
007000
006000
00C000
000000
01F000
01F000
01F000
03F800
03F800
03B800
07BC00
07BC00
071C00
0F1E00
0F1E00
0E0E00
1E0F00
1FFF00
1FFF00
1FFF00
3FFF80
3C0780
3C0780
7803C0
7803C0
F803E0
ENDCHAR

STARTCHAR Acircumflex
ENCODING 194
SWIDTH 592 0
DWIDTH 19 0
BBX 19 28 1 0
BITMAP
00E000
01F000
01B000
031800
060C00
000000
01F000
01F000
01F000
03F800
03F800
03B800
07BC00
07BC00
071C00
0F1E00
0F1E00
0E0E00
1E0F00
1FFF00
1FFF00
1FFF00
3FFF80
3C0780
3C0780
7803C0
7803C0
F803E0
ENDCHAR

STARTCHAR Atilde
ENCODING 195
SWIDTH 592 0
DWIDTH 19 0
BBX 19 27 1 0
BITMAP
01C200
03F600
06FC00
043800
000000
01F000
01F000
01F000
03F800
03F800
03B800
07BC00
07BC00
071C00
0F1E00
0F1E00
0E0E00
1E0F00
1FFF00
1FFF00
1FFF00
3FFF80
3C0780
3C0780
7803C0
7803C0
F803E0
ENDCHAR

STARTCHAR Adieresis
ENCODING 196
SWIDTH 592 0
DWIDTH 19 0
BBX 19 28 1 0
BITMAP
073800
073800
073800
073800
000000
000000
01F000
01F000
01F000
03F800
03F800
03B800
07BC00
07BC00
071C00
0F1E00
0F1E00
0E0E00
1E0F00
1FFF00
1FFF00
1FFF00
3FFF80
3C0780
3C0780
7803C0
7803C0
F803E0
ENDCHAR

STARTCHAR Aring
ENCODING 197
SWIDTH 592 0
DWIDTH 19 0
BBX 19 28 1 0
BITMAP
00E000
01B000
011000
011000
01B000
00E000
01F000
01F000
01F000
03F800
03F800
03B800
07BC00
07BC00
071C00
0F1E00
0F1E00
0E0E00
1E0F00
1FFF00
1FFF00
1FFF00
3FFF80
3C0780
3C0780
7803C0
7803C0
F803E0
ENDCHAR

STARTCHAR AE
ENCODING 198
SWIDTH 820 0
DWIDTH 26 0
BBX 25 24 0 0
BITMAP
01FFFF80
01FFFF80
03FFFF80
03FFFF80
039E0000
079E0000
079E0000
071E0000
071E0000
0F1E0000
0F1FFF00
0E1FFF00
1E1FFF00
1E1FFF00
1E1E0000
3FFE0000
3FFE0000
3FFE0000
3FFE0000
781E0000
781FFF80
781FFF80
F01FFF80
F01FFF80
ENDCHAR

STARTCHAR Ccedilla
ENCODING 199
SWIDTH 592 0
DWIDTH 19 0
BBX 17 30 1 -6
BITMAP
03F000
0FF800
1FFE00
3FFE00
3E1F00
7C0F00
780780
700780
F00000
F00000
F00000
F00000
F00000
F00000
F00000
F00780
700780
780700
7C0F00
3E1F00
3FFE00
1FFC00
0FF800
03E000
008000
01C000
006000
046000
07E000
03C000
ENDCHAR

STARTCHAR Egrave
ENCODING 200
SWIDTH 547 0
DWIDTH 17 0
BBX 14 28 2 0
BITMAP
1E00
0E00
0700
0300
0180
0000
FFFC
FFFC
FFFC
FFFC
F000
F000
F000
F000
F000
FFF8
FFF8
FFF8
FFF8
F000
F000
F000
F000
F000
FFFC
FFFC
FFFC
FFFC
ENDCHAR

STARTCHAR Eacute
ENCODING 201
SWIDTH 547 0
DWIDTH 17 0
BBX 14 28 2 0
BITMAP
01E0
01C0
0380
0300
0600
0000
FFFC
FFFC
FFFC
FFFC
F000
F000
F000
F000
F000
FFF8
FFF8
FFF8
FFF8
F000
F000
F000
F000
F000
FFFC
FFFC
FFFC
FFFC
ENDCHAR

STARTCHAR Ecircumflex
ENCODING 202
SWIDTH 547 0
DWIDTH 17 0
BBX 14 28 2 0
BITMAP
0380
07C0
06C0
0C60
1830
0000
FFFC
FFFC
FFFC
FFFC
F000
F000
F000
F000
F000
FFF8
FFF8
FFF8
FFF8
F000
F000
F000
F000
F000
FFFC
FFFC
FFFC
FFFC
ENDCHAR

STARTCHAR Edieresis
ENCODING 203
SWIDTH 547 0
DWIDTH 17 0
BBX 14 28 2 0
BITMAP
1CE0
1CE0
1CE0
1CE0
0000
0000
FFFC
FFFC
FFFC
FFFC
F000
F000
F000
F000
F000
FFF8
FFF8
FFF8
FFF8
F000
F000
F000
F000
F000
FFFC
FFFC
FFFC
FFFC
ENDCHAR

STARTCHAR Igrave
ENCODING 204
SWIDTH 228 0
DWIDTH 8 0
BBX 6 28 0 0
BITMAP
F0
70
38
18
0C
00
3C
3C
3C
3C
3C
3C
3C
3C
3C
3C
3C
3C
3C
3C
3C
3C
3C
3C
3C
3C
3C
3C
ENDCHAR

STARTCHAR Iacute
ENCODING 205
SWIDTH 228 0
DWIDTH 8 0
BBX 6 28 2 0
BITMAP
3C
38
70
60
C0
00
F0
F0
F0
F0
F0
F0
F0
F0
F0
F0
F0
F0
F0
F0
F0
F0
F0
F0
F0
F0
F0
F0
ENDCHAR

STARTCHAR Icircumflex
ENCODING 206
SWIDTH 228 0
DWIDTH 8 0
BBX 9 28 -1 0
BITMAP
1C00
3E00
3600
6300
C180
0000
1E00
1E00
1E00
1E00
1E00
1E00
1E00
1E00
1E00
1E00
1E00
1E00
1E00
1E00
1E00
1E00
1E00
1E00
1E00
1E00
1E00
1E00
ENDCHAR

STARTCHAR Idieresis
ENCODING 207
SWIDTH 228 0
DWIDTH 8 0
BBX 8 28 0 0
BITMAP
E7
E7
E7
E7
00
00
3C
3C
3C
3C
3C
3C
3C
3C
3C
3C
3C
3C
3C
3C
3C
3C
3C
3C
3C
3C
3C
3C
ENDCHAR

STARTCHAR Eth
ENCODING 208
SWIDTH 592 0
DWIDTH 20 0
BBX 19 24 0 0
BITMAP
1FFC00
1FFE00
1FFF00
1FFF80
1E07C0
1E03C0
1E03C0
1E01E0
1E01E0
1E01E0
FFC1E0
FFC1E0
FFC1E0
1E01E0
1E01E0
1E01C0
1E03C0
1E03C0
1E07C0
1E0F80
1FFF80
1FFF00
1FFE00
1FF800
ENDCHAR

STARTCHAR Ntilde
ENCODING 209
SWIDTH 592 0
DWIDTH 18 0
BBX 15 28 2 0
BITMAP
0708
0FD8
1BF0
10E0
0000
0000
F01E
F01E
F81E
F81E
FC1E
FC1E
FE1E
FE1E
F71E
F71E
F39E
F39E
F1DE
F1DE
F0FE
F0FE
F07E
F07E
F03E
F03E
F01E
F01E
ENDCHAR

STARTCHAR Ograve
ENCODING 210
SWIDTH 638 0
DWIDTH 20 0
BBX 19 28 1 0
BITMAP
03C000
01C000
00E000
006000
003000
000000
03F800
0FFE00
1FFF00
3FFF80
3E0F80
7C07C0
7803C0
7803C0
F001E0
F001E0
F001E0
F001E0
F001E0
F001E0
7803C0
7803C0
7C07C0
3E0F80
3FFF80
1FFF00
0FFE00
03F800
ENDCHAR

STARTCHAR Oacute
ENCODING 211
SWIDTH 638 0
DWIDTH 20 0
BBX 19 28 1 0
BITMAP
003C00
003800
007000
006000
00C000
000000
03F800
0FFE00
1FFF00
3FFF80
3E0F80
7C07C0
7803C0
7803C0
F001E0
F001E0
F001E0
F001E0
F001E0
F001E0
7803C0
7803C0
7C07C0
3E0F80
3FFF80
1FFF00
0FFE00
03F800
ENDCHAR

STARTCHAR Ocircumflex
ENCODING 212
SWIDTH 638 0
DWIDTH 20 0
BBX 19 28 1 0
BITMAP
00E000
01F000
01B000
031800
060C00
000000
03F800
0FFE00
1FFF00
3FFF80
3E0F80
7C07C0
7803C0
7803C0
F001E0
F001E0
F001E0
F001E0
F001E0
F001E0
7803C0
7803C0
7C07C0
3E0F80
3FFF80
1FFF00
0FFE00
03F800
ENDCHAR

STARTCHAR Otilde
ENCODING 213
SWIDTH 638 0
DWIDTH 20 0
BBX 19 27 1 0
BITMAP
01C200
03F600
06FC00
043800
000000
03F800
0FFE00
1FFF00
3FFF80
3E0F80
7C07C0
7803C0
7803C0
F001E0
F001E0
F001E0
F001E0
F001E0
F001E0
7803C0
7803C0
7C07C0
3E0F80
3FFF80
1FFF00
0FFE00
03F800
ENDCHAR

STARTCHAR Odieresis
ENCODING 214
SWIDTH 638 0
DWIDTH 20 0
BBX 19 28 1 0
BITMAP
073800
073800
073800
073800
000000
000000
03F800
0FFE00
1FFF00
3FFF80
3E0F80
7C07C0
7803C0
7803C0
F001E0
F001E0
F001E0
F001E0
F001E0
F001E0
7803C0
7803C0
7C07C0
3E0F80
3FFF80
1FFF00
0FFE00
03F800
ENDCHAR

STARTCHAR multiply
ENCODING 215
SWIDTH 479 0
DWIDTH 13 0
BBX 11 16 1 0
BITMAP
4040
4040
E0E0
F1E0
FBE0
7FC0
3F80
1F00
1F00
3F80
7FC0
7BC0
F1E0
E0E0
C060
4040
ENDCHAR

STARTCHAR Oslash
ENCODING 216
SWIDTH 638 0
DWIDTH 19 0
BBX 19 25 1 -1
BITMAP
03F860
0FFE60
1FFFC0
1FFF80
3E0F80
7C07C0
7807C0
780FC0
701DC0
F039E0
F031E0
F061E0
F0C1E0
F1C1E0
F181E0
7301C0
7E03C0
7E03C0
7C07C0
3E0F80
3FFF00
7FFF00
6FFE00
C3F800
400000
ENDCHAR

STARTCHAR Ugrave
ENCODING 217
SWIDTH 592 0
DWIDTH 19 0
BBX 15 28 2 0
BITMAP
0F00
0700
0380
0180
00C0
0000
F01E
F01E
F01E
F01E
F01E
F01E
F01E
F01E
F01E
F01E
F01E
F01E
F01E
F01E
F01E
F01E
F01E
783C
7FFC
3FF8
1FF0
07C0
ENDCHAR

STARTCHAR Uacute
ENCODING 218
SWIDTH 592 0
DWIDTH 19 0
BBX 15 28 2 0
BITMAP
01E0
01C0
0380
0300
0600
0000
F01E
F01E
F01E
F01E
F01E
F01E
F01E
F01E
F01E
F01E
F01E
F01E
F01E
F01E
F01E
F01E
F01E
783C
7FFC
3FF8
1FF0
07C0
ENDCHAR

STARTCHAR Ucircumflex
ENCODING 219
SWIDTH 592 0
DWIDTH 19 0
BBX 15 28 2 0
BITMAP
0380
07C0
06C0
0C60
1830
0000
F01E
F01E
F01E
F01E
F01E
F01E
F01E
F01E
F01E
F01E
F01E
F01E
F01E
F01E
F01E
F01E
F01E
783C
7FFC
3FF8
1FF0
07C0
ENDCHAR

STARTCHAR Udieresis
ENCODING 220
SWIDTH 592 0
DWIDTH 19 0
BBX 15 28 2 0
BITMAP
1CE0
1CE0
1CE0
1CE0
0000
0000
F01E
F01E
F01E
F01E
F01E
F01E
F01E
F01E
F01E
F01E
F01E
F01E
F01E
F01E
F01E
F01E
F01E
783C
7FFC
3FF8
1FF0
07C0
ENDCHAR

STARTCHAR Yacute
ENCODING 221
SWIDTH 547 0
DWIDTH 17 0
BBX 16 28 1 0
BITMAP
00F0
00E0
01C0
0180
0300
0000
F00F
F00F
781E
781E
3C3C
3C3C
1C38
1E78
0E70
0FF0
07E0
07E0
07E0
03C0
03C0
03C0
03C0
03C0
03C0
03C0
03C0
03C0
ENDCHAR

STARTCHAR Thorn
ENCODING 222
SWIDTH 547 0
DWIDTH 18 0
BBX 15 24 2 0
BITMAP
F000
F000
F000
FFE0
FFF8
FFFC
FFFC
F03E
F01E
F01E
F01E
F01E
F01E
F03C
FFFC
FFF8
FFF8
FFE0
F000
F000
F000
F000
F000
F000
ENDCHAR

STARTCHAR germandbls
ENCODING 223
SWIDTH 501 0
DWIDTH 16 0
BBX 13 24 2 0
BITMAP
0F00
3FC0
7FE0
7FE0
F1E0
F0F0
F0F0
F0F0
F0E0
F1E0
F3C0
F3E0
F3F0
F0F0
F078
F078
F078
F078
F070
F0F0
F3F0
F3E0
F3C0
0380
ENDCHAR

STARTCHAR agrave
ENCODING 224
SWIDTH 456 0
DWIDTH 14 0
BBX 13 24 1 0
BITMAP
1E00
0E00
0700
0300
0180
0000
0F80
3FE0
7FF0
78F0
7070
7070
00F0
0FF0
3FF0
7F70
7070
F070
F0F0
F0F0
FFF0
7FF0
7F78
1C00
ENDCHAR

STARTCHAR aacute
ENCODING 225
SWIDTH 456 0
DWIDTH 14 0
BBX 13 24 1 0
BITMAP
01E0
01C0
0380
0300
0600
0000
0F80
3FE0
7FF0
78F0
7070
7070
00F0
0FF0
3FF0
7F70
7070
F070
F0F0
F0F0
FFF0
7FF0
7F78
1C00
ENDCHAR

STARTCHAR acircumflex
ENCODING 226
SWIDTH 456 0
DWIDTH 14 0
BBX 13 24 1 0
BITMAP
0700
0F80
0D80
18C0
3060
0000
0F80
3FE0
7FF0
78F0
7070
7070
00F0
0FF0
3FF0
7F70
7070
F070
F0F0
F0F0
FFF0
7FF0
7F78
1C00
ENDCHAR

STARTCHAR atilde
ENCODING 227
SWIDTH 456 0
DWIDTH 14 0
BBX 13 23 1 0
BITMAP
0E10
1FB0
37E0
21C0
0000
0F80
3FE0
7FF0
78F0
7070
7070
00F0
0FF0
3FF0
7F70
7070
F070
F0F0
F0F0
FFF0
7FF0
7F78
1C00
ENDCHAR

STARTCHAR adieresis
ENCODING 228
SWIDTH 456 0
DWIDTH 14 0
BBX 13 24 1 0
BITMAP
39C0
39C0
39C0
39C0
0000
0000
0F80
3FE0
7FF0
78F0
7070
7070
00F0
0FF0
3FF0
7F70
7070
F070
F0F0
F0F0
FFF0
7FF0
7F78
1C00
ENDCHAR

STARTCHAR aring
ENCODING 229
SWIDTH 456 0
DWIDTH 14 0
BBX 13 24 1 0
BITMAP
0700
0D80
0880
0880
0D80
0700
0F80
3FE0
7FF0
78F0
7070
7070
00F0
0FF0
3FF0
7F70
7070
F070
F0F0
F0F0
FFF0
7FF0
7F78
1C00
ENDCHAR

STARTCHAR ae
ENCODING 230
SWIDTH 729 0
DWIDTH 24 0
BBX 22 18 1 0
BITMAP
078780
1FCFE0
3FFFF0
7FFFF8
78F878
707838
70703C
00F03C
07FFFC
3FFFFC
7F7FFC
F07000
F07000
F0F83C
F1FFF8
7FDFF0
3F8FE0
1E0780
ENDCHAR

STARTCHAR ccedilla
ENCODING 231
SWIDTH 456 0
DWIDTH 15 0
BBX 13 24 1 -6
BITMAP
0F80
1FE0
3FE0
7FF0
78F0
7078
F078
F000
F000
F000
F000
F078
7078
78F0
7FF0
3FE0
1FC0
0F80
0200
0700
0180
1180
1F80
0F00
ENDCHAR

STARTCHAR egrave
ENCODING 232
SWIDTH 456 0
DWIDTH 15 0
BBX 14 24 1 0
BITMAP
1E00
0E00
0700
0300
0180
0000
0780
1FE0
3FF0
3FF8
7878
7038
703C
F03C
FFFC
FFFC
FFFC
F000
F000
783C
7FF8
3FF0
1FE0
0780
ENDCHAR

STARTCHAR eacute
ENCODING 233
SWIDTH 456 0
DWIDTH 15 0
BBX 14 24 1 0
BITMAP
01E0
01C0
0380
0300
0600
0000
0780
1FE0
3FF0
3FF8
7878
7038
703C
F03C
FFFC
FFFC
FFFC
F000
F000
783C
7FF8
3FF0
1FE0
0780
ENDCHAR

STARTCHAR ecircumflex
ENCODING 234
SWIDTH 456 0
DWIDTH 15 0
BBX 14 24 1 0
BITMAP
0700
0F80
0D80
18C0
3060
0000
0780
1FE0
3FF0
3FF8
7878
7038
703C
F03C
FFFC
FFFC
FFFC
F000
F000
783C
7FF8
3FF0
1FE0
0780
ENDCHAR

STARTCHAR edieresis
ENCODING 235
SWIDTH 456 0
DWIDTH 15 0
BBX 14 24 1 0
BITMAP
1CE0
1CE0
1CE0
1CE0
0000
0000
0780
1FE0
3FF0
3FF8
7878
7038
703C
F03C
FFFC
FFFC
FFFC
F000
F000
783C
7FF8
3FF0
1FE0
0780
ENDCHAR

STARTCHAR igrave
ENCODING 236
SWIDTH 228 0
DWIDTH 7 0
BBX 6 24 0 0
BITMAP
F0
70
38
18
0C
00
3C
3C
3C
3C
3C
3C
3C
3C
3C
3C
3C
3C
3C
3C
3C
3C
3C
3C
ENDCHAR

STARTCHAR iacute
ENCODING 237
SWIDTH 228 0
DWIDTH 7 0
BBX 6 24 2 0
BITMAP
3C
38
70
60
C0
00
F0
F0
F0
F0
F0
F0
F0
F0
F0
F0
F0
F0
F0
F0
F0
F0
F0
F0
ENDCHAR

STARTCHAR icircumflex
ENCODING 238
SWIDTH 228 0
DWIDTH 7 0
BBX 9 24 -1 0
BITMAP
1C00
3E00
3600
6300
C180
0000
1E00
1E00
1E00
1E00
1E00
1E00
1E00
1E00
1E00
1E00
1E00
1E00
1E00
1E00
1E00
1E00
1E00
1E00
ENDCHAR

STARTCHAR idieresis
ENCODING 239
SWIDTH 228 0
DWIDTH 7 0
BBX 8 24 0 0
BITMAP
E7
E7
E7
E7
00
00
3C
3C
3C
3C
3C
3C
3C
3C
3C
3C
3C
3C
3C
3C
3C
3C
3C
3C
ENDCHAR

STARTCHAR eth
ENCODING 240
SWIDTH 501 0
DWIDTH 16 0
BBX 14 24 1 0
BITMAP
3080
3FC0
1F80
1F00
7F80
67C0
07E0
1FE0
3FF0
7FF8
7878
7038
F038
F03C
F03C
F03C
F03C
F03C
7878
7878
7FF8
3FF0
1FE0
0780
ENDCHAR

STARTCHAR ntilde
ENCODING 241
SWIDTH 501 0
DWIDTH 15 0
BBX 13 23 2 0
BITMAP
0E10
1FB0
37E0
21C0
0000
F3C0
F7E0
FFF0
FFF0
F878
F078
F078
F078
F078
F078
F078
F078
F078
F078
F078
F078
F078
F078
ENDCHAR

STARTCHAR ograve
ENCODING 242
SWIDTH 501 0
DWIDTH 15 0
BBX 14 24 1 0
BITMAP
1E00
0E00
0700
0300
0180
0000
0780
1FE0
3FF0
7FF8
7878
7078
F03C
F03C
F03C
F03C
F03C
F03C
7078
7878
7FF8
3FF0
1FE0
0780
ENDCHAR

STARTCHAR oacute
ENCODING 243
SWIDTH 501 0
DWIDTH 15 0
BBX 14 24 1 0
BITMAP
01E0
01C0
0380
0300
0600
0000
0780
1FE0
3FF0
7FF8
7878
7078
F03C
F03C
F03C
F03C
F03C
F03C
7078
7878
7FF8
3FF0
1FE0
0780
ENDCHAR

STARTCHAR ocircumflex
ENCODING 244
SWIDTH 501 0
DWIDTH 15 0
BBX 14 24 1 0
BITMAP
0700
0F80
0D80
18C0
3060
0000
0780
1FE0
3FF0
7FF8
7878
7078
F03C
F03C
F03C
F03C
F03C
F03C
7078
7878
7FF8
3FF0
1FE0
0780
ENDCHAR

STARTCHAR otilde
ENCODING 245
SWIDTH 501 0
DWIDTH 15 0
BBX 14 23 1 0
BITMAP
0E10
1FB0
37E0
21C0
0000
0780
1FE0
3FF0
7FF8
7878
7078
F03C
F03C
F03C
F03C
F03C
F03C
7078
7878
7FF8
3FF0
1FE0
0780
ENDCHAR

STARTCHAR odieresis
ENCODING 246
SWIDTH 501 0
DWIDTH 15 0
BBX 14 24 1 0
BITMAP
1CE0
1CE0
1CE0
1CE0
0000
0000
0780
1FE0
3FF0
7FF8
7878
7078
F03C
F03C
F03C
F03C
F03C
F03C
7078
7878
7FF8
3FF0
1FE0
0780
ENDCHAR

STARTCHAR divide
ENCODING 247
SWIDTH 479 0
DWIDTH 15 0
BBX 13 16 1 0
BITMAP
0700
0700
0700
0700
0000
0000
FFF8
FFF8
FFF8
FFF8
0000
0000
0700
0700
0700
0700
ENDCHAR

STARTCHAR oslash
ENCODING 248
SWIDTH 501 0
DWIDTH 12 0
BBX 14 18 0 0
BITMAP
0784
1FEC
3FF8
7FF8
7878
7078
F0FC
F1BC
F13C
F33C
F63C
FC3C
7838
7878
7FF8
7FF0
FFE0
8780
ENDCHAR

STARTCHAR ugrave
ENCODING 249
SWIDTH 501 0
DWIDTH 17 0
BBX 13 24 2 0
BITMAP
3C00
1C00
0E00
0600
0300
0000
F078
F078
F078
F078
F078
F078
F078
F078
F078
F078
F078
F078
F078
F0F8
7FF8
7FF8
3F78
1E00
ENDCHAR

STARTCHAR uacute
ENCODING 250
SWIDTH 501 0
DWIDTH 17 0
BBX 13 24 2 0
BITMAP
03C0
0380
0700
0600
0C00
0000
F078
F078
F078
F078
F078
F078
F078
F078
F078
F078
F078
F078
F078
F0F8
7FF8
7FF8
3F78
1E00
ENDCHAR

STARTCHAR ucircumflex
ENCODING 251
SWIDTH 501 0
DWIDTH 17 0
BBX 13 24 2 0
BITMAP
0700
0F80
0D80
18C0
3060
0000
F078
F078
F078
F078
F078
F078
F078
F078
F078
F078
F078
F078
F078
F0F8
7FF8
7FF8
3F78
1E00
ENDCHAR

STARTCHAR udieresis
ENCODING 252
SWIDTH 501 0
DWIDTH 17 0
BBX 13 24 2 0
BITMAP
39C0
39C0
39C0
39C0
0000
0000
F078
F078
F078
F078
F078
F078
F078
F078
F078
F078
F078
F078
F078
F0F8
7FF8
7FF8
3F78
1E00
ENDCHAR

STARTCHAR yacute
ENCODING 253
SWIDTH 456 0
DWIDTH 14 0
BBX 14 30 0 -6
BITMAP
00F0
00E0
01C0
0180
0300
0000
0000
F03C
783C
7838
7838
3878
3C70
3C70
1C70
1CE0
1EE0
0EE0
0FE0
0FC0
0FC0
07C0
0780
0780
0780
0700
0F00
3F00
3E00
3C00
ENDCHAR

STARTCHAR thorn
ENCODING 254
SWIDTH 501 0
DWIDTH 17 0
BBX 14 30 2 -6
BITMAP
F000
F000
F000
F000
F000
F000
F3C0
F7E0
FFF0
FFF8
F878
F878
F03C
F03C
F03C
F03C
F03C
F038
F878
F878
FFF8
FFF0
F7E0
F3C0
F000
F000
F000
F000
F000
F000
ENDCHAR

STARTCHAR ydieresis
ENCODING 255
SWIDTH 456 0
DWIDTH 15 0
BBX 14 30 0 -6
BITMAP
1CE0
1CE0
1CE0
1CE0
0000
0000
0000
F03C
783C
7838
7838
3878
3C70
3C70
1C70
1CE0
1EE0
0EE0
0FE0
0FC0
0FC0
07C0
0780
0780
0780
0700
0F00
3F00
3E00
3C00
ENDCHAR
ENDFONT
